HIERARCHY
ROOT Root
{
	OFFSET 0.00000 0.00000 0.00000
	CHANNELS 6 Xposition Yposition Zposition Zrotation Xrotation Yrotation
	JOINT Hip
	{
		OFFSET 0 0 0	
		CHANNELS 3 Zrotation Xrotation Yrotation
		JOINT Tummy
		{
			OFFSET 0 0.04 0	
			CHANNELS 3 Zrotation Xrotation Yrotation
			JOINT ChestBottom
			{
				OFFSET 0 0.194 0	
				CHANNELS 3 Zrotation Xrotation Yrotation
				JOINT ChestTop
				{
					OFFSET 0 0.166 0	
					CHANNELS 3 Zrotation Xrotation Yrotation
					JOINT LeftCollar
					{
						OFFSET 0 0.1 0	
						CHANNELS 3 Zrotation Xrotation Yrotation
						JOINT LeftUpperArm
						{
							OFFSET 0.156 -0.02 0.03	
							CHANNELS 3 Zrotation Xrotation Yrotation
							JOINT LeftForeArm
							{
								OFFSET 0.035 -0.27 -0.01	
								CHANNELS 3 Zrotation Xrotation Yrotation
								JOINT LeftHand
								{
									OFFSET 0.01 -0.27 0.01	
									CHANNELS 3 Zrotation Xrotation Yrotation
									End Site
									{
										OFFSET 0 -0.15 0
									}
								}
							}
						}
					}
					JOINT RightCollar
					{
						OFFSET 0 0.1 0	
						CHANNELS 3 Zrotation Xrotation Yrotation
						JOINT RightUpperArm
						{
							OFFSET -0.156 -0.02 0.03	
							CHANNELS 3 Zrotation Xrotation Yrotation
							JOINT RightForeArm
							{
								OFFSET -0.035 -0.27 -0.01	
								CHANNELS 3 Zrotation Xrotation Yrotation
								JOINT RightHand
								{
									OFFSET -0.01 -0.27 0.01	
									CHANNELS 3 Zrotation Xrotation Yrotation
									End Site
									{
										OFFSET 0 -0.15 0
									}
								}
							}
						}
					}
					JOINT Neck
					{
						OFFSET 0 0.1 0	
						CHANNELS 3 Zrotation Xrotation Yrotation
						JOINT Head
						{
							OFFSET 0 0.127 0.03	
							CHANNELS 3 Zrotation Xrotation Yrotation
							End Site
							{
								OFFSET 0 0.127 0.03
							}
						}
					}
				}
			}
		}
	}
	JOINT LeftHip
	{
		OFFSET 0 0 0	
		CHANNELS 3 Zrotation Xrotation Yrotation
		JOINT LeftThigh
		{
			OFFSET 0.088 -0.06 0	
			CHANNELS 3 Zrotation Xrotation Yrotation
			JOINT LeftLowerLeg
			{
				OFFSET 0 -0.39 0.02	
				CHANNELS 3 Zrotation Xrotation Yrotation
				JOINT LeftFootTop
				{
					OFFSET 0 -0.43 -0.02	
					CHANNELS 3 Zrotation Xrotation Yrotation
					JOINT LeftFootFront
					{
						OFFSET 0 -0.07 0.085	
						CHANNELS 3 Zrotation Xrotation Yrotation
						End Site
						{
							OFFSET 0 -0.005 0.09
						}
					}
				}
				JOINT LeftHeel
				{
					OFFSET 0 -0.43 -0.02	
					CHANNELS 3 Zrotation Xrotation Yrotation
					End Site
					{
						OFFSET 0 -0.075 -0.05
					}
				}
			}
		}
	}
	JOINT RightHip
	{
		OFFSET 0 0 0	
		CHANNELS 3 Zrotation Xrotation Yrotation
		JOINT RightThigh
		{
			OFFSET -0.088 -0.06 0	
			CHANNELS 3 Zrotation Xrotation Yrotation
			JOINT RightLowerLeg
			{
				OFFSET 0 -0.39 0.02	
				CHANNELS 3 Zrotation Xrotation Yrotation
				JOINT RightFootTop
				{
					OFFSET 0 -0.43 -0.02	
					CHANNELS 3 Zrotation Xrotation Yrotation
					JOINT RightFootFront
					{
						OFFSET 0 -0.07 0.085	
						CHANNELS 3 Zrotation Xrotation Yrotation
						End Site
						{
							OFFSET 0 -0.005 0.09
						}
					}
				}
				JOINT RightHeel
				{
					OFFSET 0 -0.43 -0.02	
					CHANNELS 3 Zrotation Xrotation Yrotation
					End Site
					{
						OFFSET 0 -0.075 -0.05
					}
				}
			}
		}
	}
}
MOTION
Frames: 17
Frame Time: 0.025
0.016424 0.56264 0.024 -0 0 -0 -0.85372 0.24329 12.348 -0.12134 1.0509 0.78218 -0.12134 1.0509 0.78218 -0.10096 0.88284 0.65687 -0 0 -0 2.3876 -9.7222 -2.9101 -2.6254 -63.03 1.1928 56.831 13.601 -20.639 -0 0 -0 1.6747 -32.988 -0.80539 42.899 -45.704 -0.16622 -3.2855 6.8568 -31.846 3.4576 2.2524 -3.8327 3.4576 2.2524 -3.8327 -0.85372 0.24329 12.348 69.876 -64.698 53.942 -94.727 42.574 65.582 27.882 3.2093 21.104 0.0029442 0.00065049 0.00084234 -0 0 -0 -0.85372 0.24329 12.348 42.706 -84.648 15.956 -68.595 75.625 62.721 -3.0497 -12.636 -7.9284 -0.010494 -0.0061952 -0.0010098 -0 0 -0 
0.016448 0.56263 0.024063 -0 0 -0 -0.87442 0.28849 12.323 -0.15046 1.0256 0.78329 -0.15046 1.0256 0.78329 -0.12544 0.86161 0.65777 -0 0 -0 2.6697 -9.758 -3.2381 -2.5277 -62.562 1.3915 56.421 13.918 -20.181 -0 0 -0 1.661 -33.418 -0.81173 41.499 -45.992 -1.6133 -2.2974 3.6372 -31.136 3.5055 2.4062 -3.8073 3.5055 2.4062 -3.8073 -0.87442 0.28849 12.323 69.955 -64.683 54.004 -94.713 42.554 65.556 27.886 3.2051 21.11 0.0049895 -0.0017683 0.001505 -0 0 -0 -0.87442 0.28849 12.323 43.268 -84.647 16.507 -68.521 75.619 62.634 -3.0666 -12.64 -7.9265 -0.0020107 -0.0063067 -0.001559 -0 0 -0 
0.016475 0.56262 0.024115 -0 0 -0 -0.89935 0.32796 12.297 -0.14412 1.0093 0.72559 -0.14412 1.0093 0.7256 -0.1202 0.84797 0.60932 -0 0 -0 2.8716 -9.6938 -3.3423 -2.5193 -62.328 1.5778 56.148 13.953 -19.87 -0 0 -0 1.586 -33.717 -0.6414 39.759 -45.864 -3.3026 -1.0681 0.30718 -30.702 3.4895 2.5509 -3.7205 3.4895 2.5509 -3.7205 -0.89935 0.32796 12.297 70.038 -64.663 54.068 -94.697 42.541 65.527 27.89 3.2031 21.117 0.0016521 -0.001344 0.0018042 -0 0 -0 -0.89935 0.32796 12.297 43.793 -84.65 17.022 -68.442 75.63 62.548 -3.0821 -12.644 -7.9224 0.0055845 -0.0025286 -0.0014373 -0 0 -0 
0.016503 0.5626 0.024155 -0 0 -0 -0.91569 0.34538 12.265 -0.11018 0.99335 0.61865 -0.11018 0.99335 0.61865 -0.091825 0.83449 0.51953 -0 0 -0 2.9204 -9.512 -3.1654 -2.5208 -62.361 1.7504 55.997 13.843 -19.803 -0 0 -0 1.4461 -33.891 -0.25339 37.452 -45.246 -5.2967 0.53504 -2.9293 -30.728 3.4231 2.6982 -3.5728 3.4231 2.6982 -3.5728 -0.91569 0.34538 12.265 70.088 -64.633 54.106 -94.686 42.534 65.506 27.893 3.2027 21.123 -0.0048759 0.0020544 0.002709 -0 0 -0 -0.91569 0.34538 12.265 44.128 -84.644 17.352 -68.389 75.65 62.493 -3.092 -12.646 -7.9126 0.0096477 0.0012906 -0.0010198 -0 0 -0 
0.016531 0.56258 0.024183 -0 0 -0 -0.91716 0.33951 12.229 -0.064469 0.98368 0.48571 -0.064469 0.98368 0.48571 -0.053593 0.82633 0.40792 -0 0 -0 2.8271 -9.3348 -2.7231 -2.6781 -62.47 1.7235 55.892 13.729 -19.895 -0 0 -0 1.3207 -34.081 0.22798 34.495 -43.979 -7.5131 2.5687 -5.8771 -31.174 3.355 2.796 -3.3687 3.355 2.796 -3.3687 -0.91716 0.33951 12.229 70.097 -64.596 54.118 -94.685 42.531 65.502 27.893 3.2041 21.128 -0.0096358 0.0046035 0.0015815 -0 0 -0 -0.91716 0.33951 12.229 44.236 -84.63 17.465 -68.371 75.674 62.479 -3.0963 -12.647 -7.8978 0.009681 0.0036827 -0.00083477 -0 0 -0 
0.016558 0.56254 0.024202 -0 0 -0 -0.91121 0.32495 12.195 -0.020141 0.99428 0.35546 -0.020141 0.99428 0.35546 -0.016503 0.8352 0.29856 -0 0 -0 2.6446 -9.2863 -2.1429 -3.0448 -62.508 1.4088 55.79 13.676 -19.997 -0 0 -0 1.3478 -34.53 0.47403 31.248 -41.916 -9.6819 4.8761 -8.3302 -31.582 3.349 2.763 -3.1262 3.349 2.763 -3.1262 -0.91121 0.32495 12.195 70.093 -64.563 54.123 -94.695 42.531 65.51 27.892 3.204 21.134 -0.0062607 0.0058602 -0.00020737 -0 0 -0 -0.91121 0.32495 12.195 44.232 -84.615 17.47 -68.389 75.699 62.505 -3.0973 -12.65 -7.8833 0.0066074 0.0038093 -0.0012609 -0 0 -0 
0.016584 0.5625 0.024214 -0 0 -0 -0.9197 0.31834 12.166 0.01963 1.0309 0.25802 0.01963 1.0309 0.25802 0.016801 0.86598 0.21676 -0 0 -0 2.4398 -9.3929 -1.6561 -3.4579 -62.47 0.97385 55.706 13.71 -20.016 -0 0 -0 1.5787 -35.245 0.35929 28.295 -39.321 -11.726 6.9857 -9.9301 -31.259 3.4337 2.5518 -2.8729 3.4337 2.5518 -2.8729 -0.9197 0.31834 12.166 70.118 -64.54 54.147 -94.71 42.536 65.522 27.89 3.2027 21.142 0.0061732 0.0027044 -0.00038181 -0 0 -0 -0.9197 0.31834 12.166 44.296 -84.612 17.527 -68.434 75.718 62.563 -3.0971 -12.654 -7.8764 0.0026467 0.00081205 -0.0024148 -0 0 -0 
0.016612 0.56245 0.024221 -0 0 -0 -0.95573 0.32911 12.15 0.047756 1.0791 0.22286 0.047756 1.0791 0.22286 0.040396 0.90647 0.18725 -0 0 -0 2.2841 -9.5762 -1.4926 -3.7104 -62.418 0.67603 55.663 13.796 -19.919 -0 0 -0 1.8495 -35.698 0.35589 26.14 -37.001 -13.884 7.9078 -10.065 -30.017 3.5547 2.213 -2.63 3.5547 2.213 -2.63 -0.95573 0.32911 12.15 70.196 -64.533 54.205 -94.717 42.549 65.53 27.892 3.1998 21.145 0.020196 -0.0038483 0.0004866 -0 0 -0 -0.95573 0.32911 12.15 44.479 -84.628 17.675 -68.484 75.723 62.634 -3.0988 -12.659 -7.8854 -0.0017793 -0.0019225 -0.0020773 -0 0 -0 
0.016644 0.5624 0.024226 -0 0 -0 -1.0131 0.36186 12.157 0.05804 1.1291 0.26474 0.05804 1.1291 0.26473 0.049103 0.94839 0.22245 -0 0 -0 2.2012 -9.7721 -1.7345 -3.6876 -62.409 0.66791 55.616 13.888 -19.742 -0 0 -0 1.9106 -35.365 0.50356 25.701 -35.466 -15.567 6.285 -7.922 -28.638 3.6015 1.8861 -2.4109 3.6015 1.8861 -2.4109 -1.0131 0.36186 12.157 70.32 -64.554 54.294 -94.706 42.569 65.531 27.897 3.1982 21.136 0.023101 -0.0067295 0.0019067 -0 0 -0 -1.0131 0.36186 12.157 44.723 -84.673 17.855 -68.512 75.709 62.693 -3.1048 -12.659 -7.9066 -0.0069301 -0.0024545 -0.00036578 -0 0 -0 
0.016681 0.56234 0.024232 -0 0 -0 -1.0745 0.41572 12.194 0.052273 1.1782 0.37084 0.052273 1.1782 0.37084 0.044421 0.98963 0.31157 -0 0 -0 2.1703 -9.9478 -2.2606 -3.4635 -62.454 0.86598 55.538 13.942 -19.54 -0 0 -0 1.7288 -34.331 -0.11187 27.175 -34.966 -15.483 1.9562 -2.3671 -28.662 3.5366 1.7565 -2.2494 3.5366 1.7565 -2.2494 -1.0745 0.41572 12.194 70.454 -64.613 54.388 -94.666 42.58 65.513 27.899 3.2074 21.123 0.012443 -0.0049307 0.0012918 -0 0 -0 -1.0745 0.41572 12.194 44.955 -84.745 18.017 -68.496 75.683 62.699 -3.1157 -12.648 -7.9252 -0.0090073 -0.0032265 0.00019174 -0 0 -0 
0.016729 0.56228 0.024241 -0 0 -0 -1.1235 0.49395 12.238 0.041491 1.185 0.49127 0.041491 1.185 0.49127 0.035535 0.99539 0.41271 -0 0 -0 2.1805 -9.9577 -2.7594 -3.2958 -62.508 0.98723 55.446 13.895 -19.315 -0 0 -0 1.5431 -33.091 -1.8063 28.765 -35.794 -13.66 -2.8976 6.9906 -30.726 3.4243 1.99 -2.1646 3.4243 1.99 -2.1646 -1.1235 0.49395 12.238 70.601 -64.688 54.502 -94.61 42.566 65.477 27.898 3.2274 21.113 -0.0018852 -0.0031141 -0.0022315 -0 0 -0 -1.1235 0.49395 12.238 45.377 -84.828 18.388 -68.427 75.657 62.627 -3.1317 -12.63 -7.9282 -0.0048657 -0.005397 -0.0003459 -0 0 -0 
0.016788 0.56221 0.024256 -0 0 -0 -1.1498 0.58753 12.228 0.051889 1.1175 0.55158 0.051889 1.1175 0.55158 0.044309 0.9387 0.46339 -0 0 -0 2.2214 -9.6661 -2.8521 -3.4452 -62.513 0.78847 55.392 13.704 -19.026 -0 0 -0 1.5756 -32.303 -3.8772 29.359 -37.291 -11.559 -6.1205 17.542 -33.017 3.3048 2.5716 -2.0921 3.3048 2.5716 -2.0921 -1.1498 0.58753 12.228 70.791 -64.714 54.68 -94.573 42.528 65.441 27.898 3.247 21.111 -0.011266 -0.0018407 -0.0045463 -0 0 -0 -1.1498 0.58753 12.228 46.372 -84.874 19.365 -68.324 75.645 62.495 -3.1498 -12.615 -7.9115 0.00075978 -0.0071152 -0.0012188 -0 0 -0 
0.016861 0.56213 0.024278 -0 0 -0 -1.1409 0.65551 12.151 0.10063 1.0312 0.5039 0.10063 1.0312 0.5039 0.085141 0.86614 0.42339 -0 0 -0 2.2544 -9.2051 -2.4019 -3.9314 -62.466 0.29914 55.426 13.416 -18.712 -0 0 -0 1.8536 -32.287 -5.4323 29.932 -37.983 -10.393 -8.0244 24.706 -33.707 3.1641 3.2609 -1.9548 3.1641 3.2609 -1.9548 -1.1409 0.65551 12.151 70.967 -64.66 54.87 -94.583 42.484 65.428 27.903 3.2544 21.12 -0.016376 0.0023032 -0.0033751 -0 0 -0 -1.1409 0.65551 12.151 47.58 -84.854 20.597 -68.236 75.655 62.366 -3.1666 -12.61 -7.8817 0.0061052 -0.0062707 -0.002986 -0 0 -0 
0.016945 0.56206 0.024309 -0 0 -0 -1.1205 0.68794 12.064 0.18291 0.99828 0.38616 0.18291 0.99828 0.38616 0.15409 0.83847 0.32458 -0 0 -0 2.2432 -8.8745 -1.6945 -4.5029 -62.359 -0.23185 55.565 13.175 -18.478 -0 0 -0 2.279 -32.842 -6.0974 31.268 -37.521 -9.9993 -9.4534 26.904 -33.296 3.0108 3.7921 -1.7887 3.0108 3.7921 -1.7887 -1.1205 0.68794 12.064 71.107 -64.577 55.036 -94.642 42.458 65.45 27.91 3.2472 21.134 -0.016914 0.0078194 -0.00096013 -0 0 -0 -1.1205 0.68794 12.064 48.415 -84.822 21.473 -68.207 75.689 62.316 -3.1785 -12.616 -7.8531 0.010967 6.2648e-05 -0.0045728 -0 0 -0 
0.017039 0.56198 0.024347 -0 0 -0 -1.1199 0.69736 12.013 0.27637 1.0326 0.2661 0.27637 1.0326 0.2661 0.23247 0.8673 0.22385 -0 0 -0 2.2118 -8.8314 -1.1061 -4.8382 -62.172 -0.54103 55.753 13.146 -18.421 -0 0 -0 2.6622 -33.582 -5.9072 32.311 -36.893 -10.141 -9.6351 26.389 -32.995 2.8817 4.0583 -1.6671 2.8817 4.0583 -1.6671 -1.1199 0.69736 12.013 71.203 -64.525 55.148 -94.715 42.455 65.492 27.917 3.2304 21.15 -0.012911 0.010965 0.0017549 -0 0 -0 -1.1199 0.69736 12.013 48.68 -84.832 21.764 -68.264 75.741 62.386 -3.1802 -12.627 -7.8347 0.01206 0.010255 -0.0058089 -0 0 -0 
0.017136 0.56191 0.024393 -0 0 -0 -1.1431 0.69285 12.01 0.35972 1.1022 0.17035 0.35972 1.1022 0.17035 0.30238 0.92578 0.14356 -0 0 -0 2.214 -9.001 -0.7777 -4.8116 -61.934 -0.54292 55.905 13.407 -18.596 -0 0 -0 2.7863 -34.226 -4.9663 32.238 -36.797 -10.567 -8.3148 25.662 -34.03 2.7887 4.0954 -1.5966 2.7887 4.0954 -1.5966 -1.1431 0.69285 12.01 71.238 -64.526 55.187 -94.768 42.474 65.537 27.923 3.2097 21.163 -0.0062773 0.010082 0.0039157 -0 0 -0 -1.1431 0.69285 12.01 48.467 -84.888 21.554 -68.405 75.794 62.563 -3.1703 -12.637 -7.8284 0.0089751 0.016264 -0.0076443 -0 0 -0 
0.01723 0.56185 0.024445 -0 0 -0 -1.1815 0.6886 12.042 0.43314 1.1538 0.082065 0.43314 1.1538 0.082065 0.36394 0.96918 0.069519 -0 0 -0 2.2577 -9.1744 -0.62173 -4.5174 -61.721 -0.32766 56.003 13.896 -19.033 -0 0 -0 2.589 -34.668 -3.5223 31.196 -37.084 -11.078 -6.0133 25.707 -36.758 2.7049 4.0093 -1.5236 2.7049 4.0093 -1.5236 -1.1815 0.6886 12.042 71.234 -64.576 55.18 -94.786 42.505 65.58 27.927 3.189 21.167 5.9962e-05 0.0048524 0.0054041 -0 0 -0 -1.1815 0.6886 12.042 48.056 -84.966 21.123 -68.586 75.831 62.786 -3.1529 -12.646 -7.8362 0.0018938 0.013959 -0.0080189 -0 0 -0 
